PathFileType	4	(X/Y/Z)	C:/Users/opensim2020/Desktop/walking_exp_matlab/subject06_walking12_straigt_03.trc																																																																																																																																														
DataRate	CameraRate	NumFrames	NumMarkers	Units	OrigDataRate	OrigDataStartFrame	OrigNumFrames																																																																																																																																										
100	100	4	48	mm	100	2141	184																																																																																																																																										
Frame#	Time	LFHD			RFHD			LBHD			RBHD			C7			T10			CLAV			STRN			RBAK			LSHO			LUPA			LELB			LFRM			LWRA			LWRB			LFIN			RSHO			RUPA			RELB			RFRM			RWRA			RWRB			RFIN			LASI			RASI			LPSI			RPSI			LTHI			LKNE			LTIB			LANK			LHEE			LTOE			RTHI			RKNE			RTIB			RANK			RHEE			RTOE			*39			*40			*41			*42			*43			*44			*45			*46			*47		
		X1	Y1	Z1	X2	Y2	Z2	X3	Y3	Z3	X4	Y4	Z4	X5	Y5	Z5	X6	Y6	Z6	X7	Y7	Z7	X8	Y8	Z8	X9	Y9	Z9	X10	Y10	Z10	X11	Y11	Z11	X12	Y12	Z12	X13	Y13	Z13	X14	Y14	Z14	X15	Y15	Z15	X16	Y16	Z16	X17	Y17	Z17	X18	Y18	Z18	X19	Y19	Z19	X20	Y20	Z20	X21	Y21	Z21	X22	Y22	Z22	X23	Y23	Z23	X24	Y24	Z24	X25	Y25	Z25	X26	Y26	Z26	X27	Y27	Z27	X28	Y28	Z28	X29	Y29	Z29	X30	Y30	Z30	X31	Y31	Z31	X32	Y32	Z32	X33	Y33	Z33	X34	Y34	Z34	X35	Y35	Z35	X36	Y36	Z36	X37	Y37	Z37	X38	Y38	Z38	X39	Y39	Z39	X40	Y40	Z40	X41	Y41	Z41	X42	Y42	Z42	X43	Y43	Z43	X44	Y44	Z44	X45	Y45	Z45	X46	Y46	Z46	X47	Y47	Z47	X48	Y48	Z48
																																																																																																																																																	
70	0.69	-97.88853	1657.93298	-1041.24048	-103.13613	1646.15515	-909.8783	-231.62715	1606.99097	-1047.63147	-235.32478	1600.26636	-918.5686	-238.21571	1448.85657	-983.44843	-282.02084	1121.19482	-966.10626	-130.85841	1367.06506	-988.21979	-97.41387	1191.16785	-991.14874	-310.39377	1283.54041	-891.01495	-198.97156	1399.06494	-1146.08447	-254.30026	1203.69324	-1210.34448	-289.36566	1096.6936	-1216.27942	-306.34726	946.59442	-1235.65967	-275.39935	820.60883	-1192.90601	-336.77808	831.5517	-1229.05139	-318.90225	741.82544	-1227.58252	-164.62923	1407.03699	-825.61401	-180.03032	1212.15759	-726.10114	-152.22969	1095.02795	-708.02008	-93.71819	991.43353	-693.82983	15.33866	891.92078	-734.24982	-31.13604	869.35272	-692.18372	34.57823	818.17584	-692.92474	-106.06046	961.19403	-1077.02368	-110.17023	962.04614	-859.25604	-264.38199	985.28967	-1054.90308	-260.18347	990.91431	-886.46771	-102.72366	654.40161	-1149.39233	-44.09307	501.78027	-1126.34583	-68.33242	248.53447	-1118.48779	-58.83619	75.81963	-1080.82495	-91.95944	58.75319	-1029.43481	82.5394	51.58991	-1094.80969	-199.87355	629.68042	-811.49847	-216.9232	504.24854	-831.61853	-315.27432	252.56081	-837.97998	-361.69812	71.75794	-887.42114	-404.35074	50.81121	-932.53217	-212.52309	30.34151	-880.7196	-199.02063	1698.56702	-985.90869	NaN	NaN	NaN	NaN	NaN	NaN	NaN	NaN	NaN	NaN	NaN	NaN	NaN	NaN	NaN	NaN	NaN	NaN	NaN	NaN	NaN	NaN	NaN	NaN
71	0.7	-87.75222	1656.13086	-1042.22253	-92.85925	1644.61511	-910.75214	-221.41434	1605.22729	-1048.44324	-225.19263	1598.67639	-919.3576	-228.05411	1447.17456	-984.14948	-272.29459	1119.61572	-966.74408	-120.77694	1365.37256	-988.90936	-87.41958	1189.44873	-991.53979	-300.37741	1282.01135	-891.63776	-189.14308	1397.43787	-1146.70972	-246.39656	1202.77429	-1210.49597	-282.67435	1096.15491	-1216.19934	-301.63339	946.26569	-1235.29163	-271.85355	819.98132	-1192.66638	-333.48132	831.60791	-1228.38086	-316.97177	741.57672	-1227.14856	-154.62947	1405.53162	-826.37469	-169.30785	1210.83801	-726.64313	-141.04947	1093.90503	-708.33105	-81.18117	991.19537	-694.25275	29.23658	893.53705	-735.09741	-16.74011	870.1405	-692.95813	49.82637	820.06744	-693.90912	-95.73106	959.73187	-1077.18457	-100.73292	960.41034	-859.48071	-254.24335	983.69769	-1055.81775	-250.71591	989.35486	-887.31921	-94.9044	651.92871	-1149.63086	-35.53211	499.69586	-1126.2251	-47.42019	245.44672	-1119.52075	-28.31509	73.17554	-1082.75854	-60.6804	54.60562	-1031.49011	113.79289	54.67176	-1095.83777	-192.29793	628.44696	-812.20154	-210.75847	503.14374	-832.05145	-312.32956	252.64912	-838.63086	-361.12592	72.42717	-887.84869	-404.00684	51.82508	-933.00708	-212.3405	30.26129	-880.7547	-188.85533	1696.85901	-986.84644	NaN	NaN	NaN	NaN	NaN	NaN	NaN	NaN	NaN	NaN	NaN	NaN	NaN	NaN	NaN	NaN	NaN	NaN	NaN	NaN	NaN	NaN	NaN	NaN
72	0.71	-77.52493	1654.09192	-1043.23108	-82.69276	1642.8573	-911.64679	-211.20499	1603.36572	-1049.34912	-214.94162	1596.91992	-920.19116	-217.83826	1445.41553	-984.95471	-262.36688	1117.89868	-967.63788	-110.54819	1363.58643	-989.63116	-77.46867	1187.61877	-992.0661	-290.35242	1280.38062	-892.33893	-179.16191	1395.70349	-1147.40771	-238.13956	1201.80432	-1210.7085	-275.80527	1095.57483	-1215.93579	-296.56989	945.84222	-1234.9624	-267.83795	819.25586	-1192.54932	-329.48114	831.44653	-1227.62219	-313.95319	741.47064	-1226.41943	-144.52336	1403.87073	-827.17676	-158.73431	1209.38342	-727.1084	-130.03586	1092.63562	-708.77246	-68.97073	990.81903	-694.83698	42.7547	894.81934	-736.03436	-2.7662	870.77222	-693.784	64.59895	821.6972	-694.94446	-84.82124	958.33594	-1077.85291	-91.35424	958.6933	-859.79761	-244.04672	981.87158	-1056.9082	-241.19983	987.62274	-888.32831	-87.08912	649.21545	-1150.20337	-27.08606	497.42096	-1126.15698	-27.18667	242.83957	-1120.74976	1.24494	71.47063	-1084.78101	-30.40406	51.76355	-1033.71472	145.13564	59.51142	-1097.07629	-184.6884	627.19843	-812.9339	-204.16762	501.97824	-832.54523	-309.15326	252.67517	-839.31927	-360.57571	73.39697	-888.06769	-403.71832	52.83031	-933.4223	-212.1747	30.1298	-880.82556	-178.61836	1695.10095	-987.79248	NaN	NaN	NaN	NaN	NaN	NaN	NaN	NaN	NaN	NaN	NaN	NaN	NaN	NaN	NaN	NaN	NaN	NaN	NaN	NaN	NaN	NaN	NaN	NaN
73	0.72	-67.3579	1652.07654	-1044.27515	-72.45518	1641.04419	-912.60797	-200.93626	1601.4093	-1050.26807	-204.6427	1595.06165	-921.13013	-207.61102	1443.58057	-985.77509	-252.46684	1116.09412	-968.62042	-100.3516	1361.71057	-990.4212	-67.32082	1185.75085	-992.64063	-280.31509	1278.69482	-893.13617	-168.97437	1393.88	-1148.20581	-229.76422	1200.7467	-1211.09082	-268.42679	1094.85376	-1216.03247	-290.8504	945.32086	-1234.77148	-263.20828	818.47705	-1192.53772	-325.15906	831.34271	-1227.10352	-310.43503	741.14282	-1225.98328	-134.39177	1402.11755	-828.03357	-148.30775	1207.74414	-727.79938	-119.07717	1091.24719	-709.27631	-56.85733	990.21863	-695.41913	56.01377	895.84558	-737.03107	10.97394	871.1051	-694.75281	78.90962	822.99677	-696.09766	-74.49525	956.56561	-1078.19983	-81.98138	956.87897	-860.07086	-233.81174	979.95703	-1057.98621	-231.56734	985.80316	-889.38361	-79.12555	646.45789	-1151.2179	-18.72164	495.11475	-1126.29333	-7.61462	240.81174	-1122.04614	29.43666	70.78242	-1086.77588	-1.59787	49.85152	-1035.87781	174.09244	64.24236	-1098.07166	-176.76929	625.92511	-813.6427	-197.12024	500.74579	-833.15027	-305.59299	252.66039	-839.95087	-359.93701	74.0957	-888.55823	-403.36536	54.08416	-933.71735	-212.11906	30.03078	-880.88574	-168.43906	1693.17017	-988.85846	NaN	NaN	NaN	NaN	NaN	NaN	NaN	NaN	NaN	NaN	NaN	NaN	NaN	NaN	NaN	NaN	NaN	NaN	NaN	NaN	NaN	NaN	NaN	NaN
